<svg aria-hidden="true" style="position: absolute; width: 0; height: 0; overflow: hidden;" version="1.1" xmlns="http://www.w3.org/2000/svg" xmlns:xlink="http://www.w3.org/1999/xlink">
<defs>
<symbol id="icon-remove-user" viewBox="0 0 20 20">
<path d="M15.989 19.129c0-2.246-2.187-3.389-4.317-4.307-2.123-0.914-2.801-1.684-2.801-3.334 0-0.989 0.648-0.667 0.932-2.481 0.12-0.752 0.692-0.012 0.802-1.729 0-0.684-0.313-0.854-0.313-0.854s0.159-1.013 0.221-1.793c0.064-0.817-0.398-2.56-2.301-3.095-0.332-0.341-0.557-0.882 0.467-1.424-2.24-0.104-2.761 1.068-3.954 1.93-1.015 0.756-1.289 1.953-1.24 2.59 0.065 0.78 0.223 1.793 0.223 1.793s-0.314 0.17-0.314 0.854c0.11 1.718 0.684 0.977 0.803 1.729 0.284 1.814 0.933 1.492 0.933 2.481 0 1.65-0.212 2.21-2.336 3.124-2.131 0.917-2.794 2.387-2.783 4.516 0.003 0.637-0.011 0.871-0.011 0.871h16c0 0-0.011-0.234-0.011-0.871zM16 10.039l-2.299-2.398-1.061 1.061 2.399 2.298-2.398 2.298 1.061 1.061 2.298-2.398 2.298 2.398 1.061-1.061-2.398-2.298 2.397-2.298-1.061-1.061-2.297 2.398z"></path>
</symbol>
<symbol id="icon-arrow-bold-left" viewBox="0 0 20 20">
<path d="M10 2.5v3.5h7v8h-7v3.5l-7.5-7.5 7.5-7.5z"></path>
</symbol>
<symbol id="icon-arrow-bold-right" viewBox="0 0 20 20">
<path d="M17.5 10l-7.5 7.5v-3.5h-7v-8h7v-3.5l7.5 7.5z"></path>
</symbol>
<symbol id="icon-arrow-bold-up" viewBox="0 0 20 20">
<path d="M10 2.5l7.5 7.5h-3.5v7h-8v-7h-3.5l7.5-7.5z"></path>
</symbol>
<symbol id="icon-arrow-down" viewBox="0 0 20 20">
<path d="M10 17.5l-6.5-6.5h3.5v-8h6v8h3.5l-6.5 6.5z"></path>
</symbol>
<symbol id="icon-arrow-left" viewBox="0 0 20 20">
<path d="M2.5 10l6.5-6.5v3.5h8v6h-8v3.5l-6.5-6.5z"></path>
</symbol>
<symbol id="icon-arrow-long-right" viewBox="0 0 20 20">
<path d="M14 15.5v-3.5h-13v-4h13v-3.5l5.25 5.5-5.25 5.5z"></path>
</symbol>
<symbol id="icon-arrow-long-up" viewBox="0 0 20 20">
<path d="M10 0.75l5.5 5.25h-3.5v13h-4v-13h-3.5l5.5-5.25z"></path>
</symbol>
<symbol id="icon-arrow-right" viewBox="0 0 20 20">
<path d="M11 16.5v-3.5h-8v-6h8v-3.5l6.5 6.5-6.5 6.5z"></path>
</symbol>
<symbol id="icon-arrow-up" viewBox="0 0 20 20">
<path d="M10 2.5l6.5 6.5h-3.5v8h-6v-8h-3.5l6.5-6.5z"></path>
</symbol>
<symbol id="icon-bookmark" viewBox="0 0 20 20">
<path d="M14 2v17l-4-4-4 4v-17c0-0.553 0.585-1.020 1-1h6c0.689-0.020 1 0.447 1 1z"></path>
</symbol>
<symbol id="icon-bookmarks" viewBox="0 0 20 20">
<path d="M15 0h-4c-0.553 0-1 0.447-1 1l0.023 0.222c1.102 0 2 0.897 2 2v11.359l0.977-1.181 3 3.6v-16c0-0.553-0.447-1-1-1zM9.023 3h-4.023c-0.553 0-1 0.447-1 1v16l3-3.6 3 3.6v-16c0-0.553-0.424-1-0.977-1z"></path>
</symbol>
<symbol id="icon-chevron-down" viewBox="0 0 20 20">
<path d="M4.516 7.548c0.436-0.446 1.043-0.481 1.576 0l3.908 3.747 3.908-3.747c0.533-0.481 1.141-0.446 1.574 0 0.436 0.445 0.408 1.197 0 1.615-0.406 0.418-4.695 4.502-4.695 4.502-0.217 0.223-0.502 0.335-0.787 0.335s-0.57-0.112-0.789-0.335c0 0-4.287-4.084-4.695-4.502s-0.436-1.17 0-1.615z"></path>
</symbol>
<symbol id="icon-chevron-left" viewBox="0 0 20 20">
<path d="M12.452 4.516c0.446 0.436 0.481 1.043 0 1.576l-3.747 3.908 3.747 3.908c0.481 0.533 0.446 1.141 0 1.574-0.445 0.436-1.197 0.408-1.615 0-0.418-0.406-4.502-4.695-4.502-4.695-0.223-0.217-0.335-0.502-0.335-0.787s0.112-0.57 0.335-0.789c0 0 4.084-4.287 4.502-4.695s1.17-0.436 1.615 0z"></path>
</symbol>
<symbol id="icon-chevron-right" viewBox="0 0 20 20">
<path d="M9.163 4.516c0.418 0.408 4.502 4.695 4.502 4.695 0.223 0.219 0.335 0.504 0.335 0.789s-0.112 0.57-0.335 0.787c0 0-4.084 4.289-4.502 4.695-0.418 0.408-1.17 0.436-1.615 0-0.446-0.434-0.481-1.041 0-1.574l3.747-3.908-3.747-3.908c-0.481-0.533-0.446-1.141 0-1.576s1.197-0.409 1.615 0z"></path>
</symbol>
<symbol id="icon-chevron-small-down" viewBox="0 0 20 20">
<path d="M13.418 7.859c0.271-0.268 0.709-0.268 0.978 0s0.272 0.701 0 0.969l-3.908 3.83c-0.27 0.268-0.707 0.268-0.979 0l-3.908-3.83c-0.27-0.267-0.27-0.701 0-0.969s0.709-0.268 0.978 0l3.421 3.141 3.418-3.141z"></path>
</symbol>
<symbol id="icon-chevron-small-left" viewBox="0 0 20 20">
<path d="M12.141 13.418c0.268 0.271 0.268 0.709 0 0.978s-0.701 0.272-0.969 0l-3.83-3.908c-0.268-0.27-0.268-0.707 0-0.979l3.83-3.908c0.267-0.27 0.701-0.27 0.969 0s0.268 0.709 0 0.978l-3.141 3.421 3.141 3.418z"></path>
</symbol>
<symbol id="icon-chevron-small-right" viewBox="0 0 20 20">
<path d="M11 10l-3.141-3.42c-0.268-0.27-0.268-0.707 0-0.978 0.268-0.27 0.701-0.27 0.969 0l3.83 3.908c0.268 0.271 0.268 0.709 0 0.979l-3.83 3.908c-0.267 0.272-0.701 0.27-0.969 0s-0.268-0.707 0-0.978l3.141-3.419z"></path>
</symbol>
<symbol id="icon-chevron-small-up" viewBox="0 0 20 20">
<path d="M6.582 12.141c-0.271 0.268-0.709 0.268-0.978 0s-0.272-0.701 0-0.969l3.908-3.83c0.27-0.268 0.707-0.268 0.979 0l3.908 3.83c0.27 0.267 0.27 0.701 0 0.969s-0.709 0.268-0.979 0l-3.42-3.141-3.418 3.141z"></path>
</symbol>
<symbol id="icon-chevron-thin-down" viewBox="0 0 20 20">
<path d="M17.418 6.109c0.272-0.268 0.709-0.268 0.979 0s0.271 0.701 0 0.969l-7.908 7.83c-0.27 0.268-0.707 0.268-0.979 0l-7.908-7.83c-0.27-0.268-0.27-0.701 0-0.969s0.709-0.268 0.979 0l7.419 7.141 7.418-7.141z"></path>
</symbol>
<symbol id="icon-chevron-thin-left" viewBox="0 0 20 20">
<path d="M13.891 17.418c0.268 0.272 0.268 0.709 0 0.979s-0.701 0.271-0.969 0l-7.83-7.908c-0.268-0.27-0.268-0.707 0-0.979l7.83-7.908c0.268-0.27 0.701-0.27 0.969 0s0.268 0.709 0 0.979l-7.141 7.419 7.141 7.418z"></path>
</symbol>
<symbol id="icon-chevron-thin-right" viewBox="0 0 20 20">
<path d="M13.25 10l-7.141-7.42c-0.268-0.27-0.268-0.707 0-0.979 0.268-0.27 0.701-0.27 0.969 0l7.83 7.908c0.268 0.271 0.268 0.709 0 0.979l-7.83 7.908c-0.268 0.271-0.701 0.27-0.969 0s-0.268-0.707 0-0.979l7.141-7.417z"></path>
</symbol>
<symbol id="icon-chevron-thin-up" viewBox="0 0 20 20">
<path d="M2.582 13.891c-0.272 0.268-0.709 0.268-0.979 0s-0.271-0.701 0-0.969l7.908-7.83c0.27-0.268 0.707-0.268 0.979 0l7.908 7.83c0.27 0.268 0.27 0.701 0 0.969s-0.709 0.268-0.978 0l-7.42-7.141-7.418 7.141z"></path>
</symbol>
<symbol id="icon-chevron-up" viewBox="0 0 20 20">
<path d="M15.484 12.452c-0.436 0.446-1.043 0.481-1.576 0l-3.908-3.747-3.908 3.747c-0.533 0.481-1.141 0.446-1.574 0-0.436-0.445-0.408-1.197 0-1.615 0.406-0.418 4.695-4.502 4.695-4.502 0.217-0.223 0.502-0.335 0.787-0.335s0.57 0.112 0.789 0.335c0 0 4.287 4.084 4.695 4.502s0.436 1.17 0 1.615z"></path>
</symbol>
<symbol id="icon-chevron-with-circle-down" viewBox="0 0 20 20">
<path d="M12.505 8.698l-2.505 2.302-2.506-2.302c-0.198-0.196-0.518-0.196-0.718 0-0.197 0.196-0.197 0.515 0 0.71l2.864 2.807c0.199 0.196 0.52 0.196 0.717 0l2.864-2.807c0.199-0.195 0.198-0.514 0-0.71-0.197-0.196-0.517-0.196-0.716 0zM10 0.4c-5.302 0-9.6 4.298-9.6 9.6 0 5.303 4.298 9.6 9.6 9.6s9.6-4.297 9.6-9.6c0-5.302-4.298-9.6-9.6-9.6zM10 18.354c-4.615 0-8.354-3.74-8.354-8.354s3.739-8.354 8.354-8.354c4.613 0 8.354 3.74 8.354 8.354s-3.741 8.354-8.354 8.354z"></path>
</symbol>
<symbol id="icon-cloud" viewBox="0 0 20 20">
<path d="M20 11.32c0 2.584-2.144 4.68-4.787 4.68h-11.596c-1.998 0-3.617-1.584-3.617-3.537 0-1.951 1.619-3.535 3.617-3.535 0.146 0 0.288 0.012 0.429 0.027-0.037-0.246-0.057-0.498-0.057-0.756 0-2.871 2.381-5.199 5.32-5.199 2.407 0 4.439 1.562 5.096 3.707 0.263-0.043 0.532-0.066 0.809-0.066 2.642 0 4.786 2.093 4.786 4.679z"></path>
</symbol>
<symbol id="icon-dots-three-horizontal" viewBox="0 0 20 20">
<path d="M10.001 7.8c-1.215 0-2.201 0.985-2.201 2.2s0.986 2.2 2.201 2.2c1.215 0 2.199-0.985 2.199-2.2s-0.984-2.2-2.199-2.2zM3.001 7.8c-1.215 0-2.201 0.985-2.201 2.2s0.986 2.2 2.201 2.2c1.215 0 2.199-0.986 2.199-2.2s-0.984-2.2-2.199-2.2zM17.001 7.8c-1.215 0-2.201 0.985-2.201 2.2s0.986 2.2 2.201 2.2c1.215 0 2.199-0.985 2.199-2.2s-0.984-2.2-2.199-2.2z"></path>
</symbol>
<symbol id="icon-dots-three-vertical" viewBox="0 0 20 20">
<path d="M10.001 7.8c-1.215 0-2.201 0.985-2.201 2.2s0.986 2.2 2.201 2.2c1.215 0 2.199-0.985 2.199-2.2s-0.984-2.2-2.199-2.2zM10.001 5.2c1.215 0 2.199-0.986 2.199-2.2s-0.984-2.2-2.199-2.2c-1.215 0-2.201 0.985-2.201 2.2s0.986 2.2 2.201 2.2zM10.001 14.8c-1.215 0-2.201 0.985-2.201 2.2s0.986 2.2 2.201 2.2c1.215 0 2.199-0.985 2.199-2.2s-0.984-2.2-2.199-2.2z"></path>
</symbol>
<symbol id="icon-resize-100" viewBox="0 0 20 20">
<path d="M4.1 14.1l-3.1 2.9 2 2 2.9-3.1 2.1 2.1v-6h-6l2.1 2.1zM19 3l-2-2-2.9 3.1-2.1-2.1v6h6l-2.1-2.1 3.1-2.9z"></path>
</symbol>
<symbol id="icon-resize-full-screen" viewBox="0 0 20 20">
<path d="M6.987 10.987l-2.931 3.031-2.056-2.429v6.411h6.387l-2.43-2.081 3.030-2.932-2-2zM11.613 2l2.43 2.081-3.030 2.932 2 2 2.931-3.031 2.056 2.429v-6.411h-6.387z"></path>
</symbol>
<symbol id="icon-add-user" viewBox="0 0 20 20">
<path d="M15.989 19.129c0.011-2.129-2.186-3.389-4.317-4.307-2.123-0.914-2.801-1.684-2.801-3.334 0-0.989 0.648-0.667 0.932-2.481 0.12-0.752 0.692-0.012 0.802-1.729 0-0.684-0.313-0.854-0.313-0.854s0.159-1.013 0.221-1.793c0.064-0.817-0.398-2.56-2.301-3.095-0.332-0.341-0.557-0.882 0.467-1.424-2.24-0.104-2.761 1.068-3.954 1.93-1.015 0.756-1.289 1.953-1.24 2.59 0.065 0.78 0.223 1.793 0.223 1.793s-0.314 0.17-0.314 0.854c0.11 1.718 0.684 0.977 0.803 1.729 0.284 1.814 0.933 1.492 0.933 2.481 0 1.65-0.212 2.21-2.336 3.124-2.131 0.917-2.794 2.387-2.783 4.516 0.003 0.637-0.011 0.871-0.011 0.871h16c0 0-0.014-0.234-0.011-0.871zM17 10v-3h-2v3h-3v2h3v3h2v-3h3v-2h-3z"></path>
</symbol>
<symbol id="icon-attachment" viewBox="0 0 20 20">
<path d="M5.602 19.8c-1.293 0-2.504-0.555-3.378-1.44-1.695-1.716-2.167-4.711 0.209-7.116 1.391-1.408 6.966-7.053 9.748-9.87 0.988-1 2.245-1.387 3.448-1.060 1.183 0.32 2.151 1.301 2.468 2.498 0.322 1.22-0.059 2.493-1.046 3.493l-9.323 9.44c-0.532 0.539-1.134 0.858-1.738 0.922-0.599 0.064-1.17-0.13-1.57-0.535-0.724-0.736-0.828-2.117 0.378-3.337l6.548-6.63c0.269-0.272 0.705-0.272 0.974 0s0.269 0.714 0 0.986l-6.549 6.631c-0.566 0.572-0.618 1.119-0.377 1.364 0.106 0.106 0.266 0.155 0.451 0.134 0.283-0.029 0.606-0.216 0.909-0.521l9.323-9.439c0.64-0.648 0.885-1.41 0.69-2.145-0.192-0.725-0.778-1.318-1.493-1.513-0.726-0.197-1.48 0.052-2.12 0.7-2.782 2.818-8.356 8.462-9.748 9.87-1.816 1.839-1.381 3.956-0.209 5.143 1.173 1.187 3.262 1.629 5.079-0.212l9.748-9.87c0.269-0.272 0.705-0.272 0.974 0s0.269 0.714 0 0.987l-9.748 9.87c-1.149 1.162-2.436 1.65-3.648 1.65z"></path>
</symbol>
<symbol id="icon-briefcase" viewBox="0 0 20 20">
<path d="M9 10h2v2h9c0 0-0.149-4.459-0.2-5.854-0.050-1.326-0.525-2.146-2-2.146h-3.208c-0.497-0.938-1.032-1.945-1.197-2.256-0.331-0.623-0.444-0.744-1.179-0.744h-4.433c-0.735 0-0.847 0.121-1.179 0.744-0.165 0.311-0.7 1.318-1.196 2.256h-3.209c-1.476 0-1.945 0.82-2 2.146s-0.199 5.854-0.199 5.854h9v-2zM7.649 2.916c0.23-0.432 0.308-0.516 0.817-0.516h3.067c0.509 0 0.588 0.084 0.816 0.516 0.086 0.16 0.318 0.6 0.575 1.084h-5.85c0.257-0.484 0.489-0.924 0.575-1.084zM11 15h-2v-2h-8.5c0 0 0.124 1.797 0.199 3.322 0.031 0.633 0.218 1.678 1.8 1.678h15.001c1.582 0 1.765-1.047 1.8-1.678 0.087-1.568 0.2-3.322 0.2-3.322h-8.5v2z"></path>
</symbol>
<symbol id="icon-browser" viewBox="0 0 20 20">
<path d="M18 2h-16c-1.1 0-2 0.9-2 2v12c0 1.1 0.9 2 2 2h16c1.1 0 2-0.9 2-2v-12c0-1.1-0.9-2-2-2zM4.5 3.75c0.414 0 0.75 0.336 0.75 0.75s-0.336 0.75-0.75 0.75c-0.414 0-0.75-0.336-0.75-0.75s0.336-0.75 0.75-0.75zM1.75 4.5c0-0.414 0.336-0.75 0.75-0.75s0.75 0.336 0.75 0.75c0 0.414-0.336 0.75-0.75 0.75s-0.75-0.336-0.75-0.75zM18 16h-16v-9h16v9zM18 5h-12v-1h12.019l-0.019 1z"></path>
</symbol>
<symbol id="icon-calendar" viewBox="0 0 20 20">
<path d="M17 3h-1v2h-3v-2h-6v2h-3v-2h-1c-1.101 0-2 0.9-2 2v12c0 1.1 0.899 2 2 2h14c1.1 0 2-0.9 2-2v-12c0-1.1-0.9-2-2-2zM17 17h-14v-8h14v8zM6.5 1h-2v3.5h2v-3.5zM15.5 1h-2v3.5h2v-3.5z"></path>
</symbol>
<symbol id="icon-camera" viewBox="0 0 20 20">
<path d="M10 8c-1.657 0-3 1.344-3 3s1.343 3 3 3c1.656 0 3-1.344 3-3s-1.344-3-3-3zM18 5h-2.4c-0.33 0-0.686-0.256-0.789-0.57l-0.621-1.861c-0.105-0.313-0.459-0.569-0.79-0.569h-6.8c-0.33 0-0.686 0.256-0.789 0.568l-0.622 1.862c-0.104 0.314-0.459 0.57-0.789 0.57h-2.4c-1.1 0-2 0.9-2 2v9c0 1.1 0.9 2 2 2h16c1.1 0 2-0.9 2-2v-9c0-1.1-0.9-2-2-2zM10 16c-2.762 0-5-2.238-5-5s2.238-5 5-5c2.761 0 5 2.238 5 5s-2.239 5-5 5zM17.5 8.2c-0.387 0-0.7-0.314-0.7-0.701 0-0.385 0.313-0.7 0.7-0.7s0.7 0.314 0.7 0.7c0 0.387-0.313 0.701-0.7 0.701z"></path>
</symbol>
<symbol id="icon-ccw" viewBox="0 0 20 20">
<path d="M0.685 10h2.372v-0.205c0.108-4.434 3.724-7.996 8.169-7.996 4.515 0 8.174 3.672 8.174 8.201s-3.659 8.199-8.174 8.199c-1.898 0-3.645-0.65-5.033-1.738l1.406-1.504c1.016 0.748 2.27 1.193 3.627 1.193 3.386 0 6.131-2.754 6.131-6.15s-2.745-6.15-6.131-6.15c-3.317 0-6.018 2.643-6.125 5.945v0.205h2.672l-3.494 3.894-3.594-3.894z"></path>
</symbol>
<symbol id="icon-chat" viewBox="0 0 20 20">
<path d="M5.8 12.2v-6.2h-3.8c-1.1 0-2 0.9-2 2v6c0 1.1 0.9 2 2 2h1v3l3-3h5c1.1 0 2-0.9 2-2v-1.82c-0.064 0.014-0.132 0.021-0.2 0.021l-7-0.001zM18 1h-9c-1.1 0-2 0.9-2 2v8h7l3 3v-3h1c1.1 0 2-0.899 2-2v-6c0-1.1-0.9-2-2-2z"></path>
</symbol>
<symbol id="icon-check" viewBox="0 0 20 20">
<path d="M8.294 16.998c-0.435 0-0.847-0.203-1.111-0.553l-3.573-4.721c-0.465-0.613-0.344-1.486 0.27-1.951 0.615-0.467 1.488-0.344 1.953 0.27l2.351 3.104 5.911-9.492c0.407-0.652 1.267-0.852 1.921-0.445s0.854 1.266 0.446 1.92l-6.984 11.21c-0.242 0.391-0.661 0.635-1.12 0.656-0.022 0.002-0.042 0.002-0.064 0.002z"></path>
</symbol>
<symbol id="icon-circle-with-cross" viewBox="0 0 20 20">
<path d="M10 1.6c-4.639 0-8.4 3.761-8.4 8.4s3.761 8.4 8.4 8.4 8.4-3.761 8.4-8.4c0-4.639-3.761-8.4-8.4-8.4zM14.789 13.061l-1.729 1.729-3.060-3.061-3.061 3.060-1.729-1.729 3.062-3.060-3.061-3.061 1.729-1.728 3.060 3.060 3.061-3.061 1.729 1.729-3.062 3.061 3.061 3.061z"></path>
</symbol>
<symbol id="icon-circle-with-minus" viewBox="0 0 20 20">
<path d="M10 1.6c-4.639 0-8.4 3.761-8.4 8.4s3.761 8.4 8.4 8.4 8.4-3.761 8.4-8.4c0-4.639-3.761-8.4-8.4-8.4zM15 11h-10v-2h10v2z"></path>
</symbol>
<symbol id="icon-circle-with-plus" viewBox="0 0 20 20">
<path d="M10 1.6c-4.639 0-8.4 3.761-8.4 8.4s3.761 8.4 8.4 8.4 8.4-3.761 8.4-8.4c0-4.639-3.761-8.4-8.4-8.4zM15 11h-4v4h-2v-4h-4v-2h4v-4h2v4h4v2z"></path>
</symbol>
<symbol id="icon-cog" viewBox="0 0 20 20">
<path d="M16.783 10c0-1.049 0.646-1.875 1.617-2.443-0.176-0.584-0.407-1.145-0.692-1.672-1.089 0.285-1.97-0.141-2.711-0.883-0.741-0.74-0.968-1.621-0.683-2.711-0.527-0.285-1.088-0.518-1.672-0.691-0.568 0.97-1.595 1.615-2.642 1.615-1.048 0-2.074-0.645-2.643-1.615-0.585 0.173-1.144 0.406-1.671 0.691 0.285 1.090 0.059 1.971-0.684 2.711-0.74 0.742-1.621 1.168-2.711 0.883-0.285 0.527-0.517 1.088-0.691 1.672 0.97 0.568 1.615 1.394 1.615 2.443 0 1.047-0.645 2.074-1.615 2.643 0.175 0.584 0.406 1.144 0.691 1.672 1.090-0.285 1.971-0.059 2.711 0.682s0.969 1.623 0.684 2.711c0.527 0.285 1.087 0.518 1.672 0.693 0.568-0.973 1.595-1.617 2.643-1.617 1.047 0 2.074 0.645 2.643 1.617 0.584-0.176 1.144-0.408 1.672-0.693-0.285-1.088-0.059-1.969 0.683-2.711 0.741-0.74 1.622-1.166 2.711-0.883 0.285-0.527 0.517-1.086 0.692-1.672-0.973-0.569-1.619-1.395-1.619-2.442zM10 13.652c-2.018 0-3.653-1.635-3.653-3.652 0-2.018 1.636-3.654 3.653-3.654s3.652 1.637 3.652 3.654c0 2.018-1.634 3.652-3.652 3.652z"></path>
</symbol>
<symbol id="icon-cross" viewBox="0 0 20 20">
<path d="M14.348 14.849c-0.469 0.469-1.229 0.469-1.697 0l-2.651-3.030-2.651 3.029c-0.469 0.469-1.229 0.469-1.697 0-0.469-0.469-0.469-1.229 0-1.697l2.758-3.15-2.759-3.152c-0.469-0.469-0.469-1.228 0-1.697s1.228-0.469 1.697 0l2.652 3.031 2.651-3.031c0.469-0.469 1.228-0.469 1.697 0s0.469 1.229 0 1.697l-2.758 3.152 2.758 3.15c0.469 0.469 0.469 1.229 0 1.698z"></path>
</symbol>
<symbol id="icon-cup" viewBox="0 0 20 20">
<path d="M10 1c-4.279 0-6.94 1.41-6.795 2.555l1.442 13.467c0.058 0.46 2.221 1.976 5.353 1.978 3.131-0.002 5.295-1.518 5.351-1.979l1.442-13.467c0.145-1.144-2.514-2.554-6.793-2.554zM10 5.291c-3.132-0.002-5.353-1.117-5.353-1.535-0.001-0.414 2.222-1.531 5.353-1.529 3.131-0.002 5.354 1.115 5.351 1.529 0 0.418-2.22 1.533-5.351 1.535z"></path>
</symbol>
<symbol id="icon-cw" viewBox="0 0 20 20">
<path d="M19.315 10h-2.372v-0.205c-0.108-4.434-3.724-7.996-8.169-7.996-4.515 0-8.174 3.672-8.174 8.201s3.659 8.199 8.174 8.199c1.898 0 3.645-0.65 5.033-1.738l-1.406-1.504c-1.016 0.748-2.27 1.193-3.627 1.193-3.386 0-6.131-2.754-6.131-6.15s2.745-6.15 6.131-6.15c3.317 0 6.018 2.643 6.125 5.945v0.205h-2.672l3.494 3.894 3.594-3.894z"></path>
</symbol>
<symbol id="icon-cycle" viewBox="0 0 20 20">
<path d="M5.516 14.224c-2.262-2.432-2.222-6.244 0.128-8.611 0.962-0.969 2.164-1.547 3.414-1.736l-0.069-2.077c-1.755 0.213-3.452 0.996-4.797 2.351-3.149 3.17-3.187 8.289-0.123 11.531l-1.741 1.752 5.51 0.301-0.015-5.834-2.307 2.323zM12.163 2.265l0.015 5.834 2.307-2.322c2.262 2.434 2.222 6.246-0.128 8.611-0.961 0.969-2.164 1.547-3.414 1.736l0.069 2.076c1.755-0.213 3.452-0.996 4.798-2.35 3.148-3.172 3.186-8.291 0.122-11.531l1.741-1.754-5.51-0.3z"></path>
</symbol>
<symbol id="icon-database" viewBox="0 0 20 20">
<path d="M16.726 12.641c-0.843 1.363-3.535 2.361-6.726 2.361s-5.883-0.998-6.727-2.361c-0.178-0.29-0.273-0.135-0.273 0.007 0 0.144 0 2.002 0 2.002 0 1.94 3.134 3.95 7 3.95s7-2.010 7-3.949c0 0 0-1.858 0-2.002s-0.096-0.298-0.274-0.008zM16.737 7.525c-0.83 1.205-3.532 2.090-6.737 2.090s-5.908-0.885-6.738-2.090c-0.171-0.248-0.262-0.113-0.262-0.002 0 0.113 0 2.357 0 2.357 0 1.762 3.134 3.189 7 3.189s7-1.428 7-3.189c0 0 0-2.244 0-2.357 0-0.111-0.092-0.246-0.263 0.002zM10 1c-3.866 0-7 1.18-7 2.633v1.26c0 1.541 3.134 2.791 7 2.791s7-1.25 7-2.791v-1.26c0-1.453-3.134-2.633-7-2.633z"></path>
</symbol>
<symbol id="icon-direction" viewBox="0 0 20 20">
<path d="M18.060 1.941c-0.586-0.586-1.144-0.033-3.041 0.879-5.075 2.439-13.919 7.396-13.919 7.396l7.599 1.084 1.085 7.599c0 0 4.958-8.843 7.396-13.916 0.912-1.898 1.465-2.456 0.88-3.042zM16.236 3.896l-5.519 10.247-0.561-4.655 6.080-5.592z"></path>
</symbol>
<symbol id="icon-edit" viewBox="0 0 20 20">
<path d="M17.561 2.439c-1.442-1.443-2.525-1.227-2.525-1.227l-12.826 12.825-1.010 4.762 4.763-1.010 12.826-12.823c-0.001 0 0.216-1.083-1.228-2.527zM5.68 17.217l-1.624 0.35c-0.156-0.293-0.345-0.586-0.69-0.932s-0.639-0.533-0.932-0.691l0.35-1.623 0.47-0.469c0 0 0.883 0.018 1.881 1.016 0.997 0.996 1.016 1.881 1.016 1.881l-0.471 0.468z"></path>
</symbol>
<symbol id="icon-emoji-happy" viewBox="0 0 20 20">
<path d="M10 0.4c-5.302 0-9.6 4.298-9.6 9.6s4.298 9.6 9.6 9.6c5.301 0 9.6-4.298 9.6-9.601 0-5.301-4.299-9.599-9.6-9.599zM10 17.599c-4.197 0-7.6-3.402-7.6-7.6s3.402-7.599 7.6-7.599c4.197 0 7.601 3.402 7.601 7.6s-3.404 7.599-7.601 7.599zM7.501 9.75c0.828 0 1.499-0.783 1.499-1.75s-0.672-1.75-1.5-1.75-1.5 0.783-1.5 1.75 0.672 1.75 1.501 1.75zM12.5 9.75c0.829 0 1.5-0.783 1.5-1.75s-0.672-1.75-1.5-1.75-1.5 0.784-1.5 1.75 0.672 1.75 1.5 1.75zM14.341 11.336c-0.363-0.186-0.815-0.043-1.008 0.32-0.034 0.066-0.869 1.593-3.332 1.593-2.451 0-3.291-1.513-3.333-1.592-0.188-0.365-0.632-0.514-1.004-0.329-0.37 0.186-0.52 0.636-0.335 1.007 0.050 0.099 1.248 2.414 4.672 2.414 3.425 0 4.621-2.316 4.67-2.415 0.184-0.367 0.036-0.81-0.33-0.998z"></path>
</symbol>
<symbol id="icon-emoji-sad" viewBox="0 0 20 20">
<path d="M10.001 0.4c-5.303 0-9.601 4.298-9.601 9.6 0 5.303 4.298 9.601 9.601 9.601 5.301 0 9.6-4.298 9.6-9.601s-4.3-9.6-9.6-9.6zM10 17.599c-4.197 0-7.6-3.402-7.6-7.6 0-4.197 3.402-7.6 7.6-7.6 4.197 0 7.6 3.402 7.6 7.6s-3.403 7.6-7.6 7.6zM12.501 9.75c0.828 0 1.5-0.783 1.5-1.75s-0.672-1.75-1.5-1.75c-0.828 0-1.5 0.783-1.5 1.75s0.671 1.75 1.5 1.75zM7.501 9.75c0.828 0 1.5-0.783 1.5-1.75s-0.672-1.75-1.5-1.75c-0.828 0-1.5 0.783-1.5 1.75s0.671 1.75 1.5 1.75zM10.002 11.25c-3.424 0-4.622 2.315-4.672 2.414-0.186 0.371-0.035 0.821 0.335 1.007 0.108 0.053 0.222 0.079 0.335 0.079 0.275 0 0.54-0.151 0.672-0.414 0.008-0.017 0.822-1.586 3.33-1.586 2.463 0 3.298 1.527 3.328 1.585 0.184 0.37 0.635 0.523 1.006 0.336 0.371-0.184 0.521-0.636 0.336-1.006-0.049-0.099-1.246-2.415-4.67-2.415z"></path>
</symbol>
<symbol id="icon-export" viewBox="0 0 20 20">
<path d="M15 15h-13v-9h2.595c0 0 0.689-0.896 2.17-2h-5.765c-0.553 0-1 0.449-1 1v11c0 0.553 0.447 1 1 1h15c0.553 0 1-0.447 1-1v-3.746l-2 1.645v1.101zM13.361 8.050v3.551l6.639-5.201-6.639-4.999v3.131c-8.061 0-8.061 7.968-8.061 7.968 2.282-3.748 3.686-4.45 8.061-4.45z"></path>
</symbol>
<symbol id="icon-flashlight" viewBox="0 0 20 20">
<path d="M17.115 2.884c-1.676-1.676-3.779-2.288-4.449-1.618l-2.696 2.696c-0.409 0.41-0.766 1.779-0.602 3.164l-8.161 8.161c-0.484 0.484-0.092 1.66 0.876 2.629s2.146 1.359 2.629 0.877l8.161-8.162c1.386 0.164 2.755-0.193 3.164-0.601l2.696-2.697c0.67-0.67 0.058-2.774-1.618-4.449zM8.141 11.039c-0.373-0.372-0.251-1.096 0.269-1.617s1.246-0.643 1.618-0.27c0.372 0.371 0.251 1.097-0.27 1.617-0.521 0.522-1.245 0.643-1.617 0.27zM14.891 5.108c-1.298-1.297-1.623-3.010-1.508-3.125s1.76 0.277 3.059 1.575c1.298 1.298 1.688 2.946 1.575 3.059-0.112 0.112-1.829-0.21-3.126-1.509z"></path>
</symbol>
<symbol id="icon-folder" viewBox="0 0 20 20">
<path d="M18.405 4.799c-0.111-0.44-0.655-0.799-1.21-0.799h-6.814c-0.554 0-1.33-0.318-1.722-0.707l-0.596-0.588c-0.392-0.389-1.167-0.705-1.721-0.705h-3.255c-0.555 0-1.059 0.447-1.12 0.994l-0.292 3.006h16.931l-0.201-1.201zM19.412 7h-18.824c-0.342 0-0.61 0.294-0.577 0.635l0.923 9.669c0.037 0.394 0.369 0.696 0.766 0.696h16.6c0.397 0 0.728-0.302 0.766-0.696l0.923-9.669c0.033-0.341-0.235-0.635-0.577-0.635z"></path>
</symbol>
<symbol id="icon-funnel" viewBox="0 0 20 20">
<path d="M10 1c-4.908 0-8 1.512-8 3.001v2c0 0.918 6 6 6 6v6c-0.001 0.684 1 1 2 1s2.001-0.316 2-1v-6c0 0 6-5.082 6-6v-2c0-1.489-3.092-3.001-8-3.001zM10 6.123c-3.591-0.001-6.138-1.333-6.138-1.831-0.002-0.495 2.548-1.831 6.138-1.829 3.59-0.002 6.14 1.334 6.138 1.828 0 0.499-2.547 1.831-6.138 1.832z"></path>
</symbol>
<symbol id="icon-globe" viewBox="0 0 20 20">
<path d="M10 0.4c-5.295 0-9.601 4.307-9.601 9.6s4.306 9.6 9.601 9.6c5.293 0 9.6-4.307 9.6-9.6s-4.307-9.6-9.6-9.6zM18.188 10c0 1.873-0.636 3.6-1.696 4.98-0.3-0.234-0.619-0.867-0.319-1.523 0.303-0.66 0.382-2.188 0.312-2.783-0.066-0.594-0.375-2.025-1.214-2.039-0.838-0.012-1.413-0.289-1.911-1.283-1.033-2.068 1.939-2.465 0.906-3.609-0.289-0.322-1.783 1.322-2.002-0.869-0.014-0.157 0.135-0.392 0.336-0.636 3.244 1.090 5.588 4.157 5.588 7.762zM8.875 1.893c-0.196 0.382-0.713 0.537-1.027 0.824-0.684 0.619-0.978 0.533-1.346 1.127-0.371 0.594-1.567 1.449-1.567 1.879s0.604 0.936 0.906 0.838c0.302-0.1 1.099-0.094 1.567 0.070 0.469 0.166 3.914 0.332 2.816 3.244-0.348 0.926-1.873 0.77-2.279 2.303-0.061 0.225-0.272 1.186-0.285 1.5-0.025 0.486 0.344 2.318-0.125 2.318-0.471 0-1.738-1.639-1.738-1.936s-0.328-1.338-0.328-2.23c0-0.891-1.518-0.877-1.518-2.062 0-1.068 0.823-1.6 0.638-2.113-0.181-0.51-1.627-0.527-2.23-0.59 1.053-2.731 3.53-4.758 6.516-5.172zM7.424 17.77c0.492-0.26 0.542-0.596 0.988-0.613 0.51-0.023 0.925-0.199 1.5-0.326 0.51-0.111 1.423-0.629 2.226-0.695 0.678-0.055 2.015 0.035 2.375 0.689-1.295 0.861-2.848 1.363-4.514 1.363-0.899 0-1.765-0.149-2.575-0.418z"></path>
</symbol>
<symbol id="icon-hand" viewBox="0 0 20 20">
<path d="M17.924 17.315c-0.057 0.174-0.193 0.367-0.416 0.432-0.161 0.047-5.488 1.59-5.652 1.633-0.469 0.125-0.795 0.033-1.009-0.156-0.326-0.287-4.093-2.85-8.845-3.092-0.508-0.025-0.259-1.951 1.193-1.951 0.995 0 3.904 0.723 4.255 0.371 0.271-0.272 0.394-1.879-0.737-4.683v0l-2.275-5.637c-0.216-0.535 0.044-1.143 0.578-1.359s1.145 0.043 1.359 0.578c0 0 1.791 4.438 1.986 4.919 0.193 0.48 0.431 0.662 0.69 0.562 0.231-0.088 0.279-0.242 0.139-0.709l-2.046-6.028c-0.186-0.546 0.106-1.138 0.652-1.324s1.141 0.106 1.325 0.652l1.946 5.732c0.172 0.504 0.354 0.768 0.642 0.646 0.173-0.073 0.161-0.338 0.115-0.569l-1.366-5.471c-0.14-0.561 0.201-1.127 0.761-1.267s1.125 0.2 1.266 0.761l1.26 5.042c0.184 0.741 0.353 1.008 0.646 0.935 0.299-0.073 0.285-0.319 0.244-0.522-0.095-0.475-0.872-4.328-0.872-4.328-0.103-0.515 0.23-1.015 0.744-1.118s1.014 0.23 1.116 0.743l0.948 4.711 0.001 0.001c0 0 0 0 0 0.001l0.568 2.825c0.124 0.533 0.266 1.035 0.45 1.527 1.085 2.889 0.519 5.564 0.334 6.143z"></path>
</symbol>
<symbol id="icon-heart-outlined" viewBox="0 0 20 20">
<path d="M17.19 4.156c-1.672-1.535-4.383-1.535-6.055 0l-1.135 1.041-1.136-1.041c-1.672-1.535-4.382-1.535-6.054 0-1.881 1.726-1.881 4.519 0 6.245l7.19 6.599 7.19-6.599c1.88-1.726 1.88-4.52 0-6.245zM16.124 9.375l-6.124 5.715-6.125-5.715c-0.617-0.567-0.856-1.307-0.856-2.094s0.138-1.433 0.756-1.999c0.545-0.501 1.278-0.777 2.063-0.777s1.517 0.476 2.062 0.978l2.1 1.825 2.099-1.826c0.546-0.502 1.278-0.978 2.063-0.978s1.518 0.276 2.063 0.777c0.618 0.566 0.755 1.212 0.755 1.999s-0.238 1.528-0.856 2.095z"></path>
</symbol>
<symbol id="icon-heart" viewBox="0 0 20 20">
<path d="M17.19 4.155c-1.672-1.534-4.383-1.534-6.055 0l-1.135 1.042-1.136-1.042c-1.672-1.534-4.382-1.534-6.054 0-1.881 1.727-1.881 4.52 0 6.246l7.19 6.599 7.19-6.599c1.88-1.726 1.88-4.52 0-6.246z"></path>
</symbol>
<symbol id="icon-help" viewBox="0 0 20 20">
<path d="M14.090 2.233c-1.14-0.822-2.572-1.233-4.296-1.233-1.311 0-2.418 0.289-3.317 0.868-1.427 0.906-2.185 2.445-2.277 4.615h3.307c0-0.633 0.185-1.24 0.553-1.828 0.369-0.586 0.995-0.879 1.878-0.879 0.898 0 1.517 0.238 1.854 0.713 0.339 0.477 0.508 1.004 0.508 1.582 0 0.504-0.252 0.965-0.557 1.383-0.167 0.244-0.387 0.469-0.661 0.674 0 0-1.793 1.15-2.58 2.074-0.456 0.535-0.497 1.338-0.538 2.488-0.002 0.082 0.029 0.252 0.315 0.252s2.316 0 2.571 0c0.256 0 0.309-0.189 0.312-0.274 0.018-0.418 0.064-0.633 0.141-0.875 0.144-0.457 0.538-0.855 0.979-1.199l0.91-0.627c0.822-0.641 1.477-1.166 1.767-1.578 0.494-0.676 0.842-1.51 0.842-2.5-0.001-1.615-0.571-2.832-1.711-3.656zM9.741 14.924c-1.139-0.035-2.079 0.754-2.115 1.99-0.035 1.234 0.858 2.051 1.998 2.084 1.189 0.035 2.104-0.727 2.141-1.963 0.034-1.236-0.834-2.076-2.024-2.111z"></path>
</symbol>
<symbol id="icon-home" viewBox="0 0 20 20">
<path d="M18.672 11h-1.672v6c0 0.445-0.194 1-1 1h-4v-6h-4v6h-4c-0.806 0-1-0.555-1-1v-6h-1.672c-0.598 0-0.47-0.324-0.060-0.748l8.024-8.032c0.195-0.202 0.451-0.302 0.708-0.312 0.257 0.010 0.513 0.109 0.708 0.312l8.023 8.031c0.411 0.425 0.539 0.749-0.059 0.749z"></path>
</symbol>
<symbol id="icon-hour-glass" viewBox="0 0 20 20">
<path d="M15.6 4.576c0-2.139 0-2.348 0-2.348 0-0.789-2.508-2.228-5.6-2.228-3.093 0-5.6 1.439-5.6 2.228 0 0 0 0.209 0 2.348 0 2.141 3.877 3.908 3.877 5.424 0 1.514-3.877 3.281-3.877 5.422s0 2.35 0 2.35c0 0.788 2.507 2.228 5.6 2.228 3.092 0 5.6-1.44 5.6-2.229 0 0 0-0.209 0-2.35s-3.877-3.908-3.877-5.422c0-1.515 3.877-3.282 3.877-5.423zM5.941 2.328c0.696-0.439 2-1.082 4.114-1.082s4.006 1.082 4.006 1.082c0.142 0.086 0.698 0.383 0.317 0.609-0.838 0.497-2.478 1.020-4.378 1.020s-3.484-0.576-4.324-1.074c-0.381-0.225 0.265-0.555 0.265-0.555zM10.501 10c0 1.193 0.996 1.961 2.051 2.986 0.771 0.748 1.826 1.773 1.826 2.435v1.328c-0.97-0.483-3.872-0.955-3.872-2.504 0-0.783-1.013-0.783-1.013 0 0 1.549-2.902 2.021-3.872 2.504v-1.328c0-0.662 1.056-1.688 1.826-2.435 1.055-1.025 2.051-1.793 2.051-2.986s-0.996-1.961-2.051-2.986c-0.771-0.75-1.826-1.775-1.826-2.438l-0.046-0.998c1.026 0.553 2.652 1.078 4.425 1.078 1.772 0 3.406-0.525 4.433-1.078l-0.055 0.998c0 0.662-1.056 1.688-1.826 2.438-1.054 1.025-2.051 1.793-2.051 2.986z"></path>
</symbol>
<symbol id="icon-image-inverted" viewBox="0 0 20 20">
<path d="M18 3h-16c-0.553 0-1 0.447-1 1v12c0 0.552 0.447 1 1 1h16c0.553 0 1-0.448 1-1v-12c0-0.552-0.447-1-1-1zM13.25 6.5c0.69 0 1.25 0.56 1.25 1.25s-0.56 1.25-1.25 1.25-1.25-0.56-1.25-1.25 0.56-1.25 1.25-1.25zM4 14l3.314-7.619 3.769 6.102 3.231-1.605 1.686 3.122h-12z"></path>
</symbol>
<symbol id="icon-image" viewBox="0 0 20 20">
<path d="M19 2h-18c-0.553 0-1 0.447-1 1v14c0 0.552 0.447 1 1 1h18c0.553 0 1-0.448 1-1v-14c0-0.552-0.447-1-1-1zM18 16h-16v-12h16v12zM14.315 10.877l-3.231 1.605-3.77-6.101-3.314 7.619h12l-1.685-3.123zM13.25 9c0.69 0 1.25-0.56 1.25-1.25s-0.56-1.25-1.25-1.25-1.25 0.56-1.25 1.25 0.56 1.25 1.25 1.25z"></path>
</symbol>
<symbol id="icon-images" viewBox="0 0 20 20">
<path d="M17.125 6.17l-2.046-5.635c-0.151-0.416-0.595-0.637-0.989-0.492l-13.598 4.963c-0.394 0.144-0.593 0.597-0.441 1.013l2.156 5.941v-3.183c0-1.438 1.148-2.607 2.56-2.607h3.593l4.285-3.008 2.479 3.008h2.001zM19.238 8h-14.471c-0.42 0-0.762 0.334-0.762 0.777v9.42c0.001 0.444 0.343 0.803 0.762 0.803h14.471c0.42 0 0.762-0.359 0.762-0.803v-9.42c0-0.443-0.342-0.777-0.762-0.777zM18 17h-12v-2l1.984-4.018 2.768 3.436 2.598-2.662 3.338-1.205 1.312 3.449v3z"></path>
</symbol>
<symbol id="icon-info" viewBox="0 0 20 20">
<path d="M12.432 0c1.34 0 2.010 0.912 2.010 1.957 0 1.305-1.164 2.512-2.679 2.512-1.269 0-2.009-0.75-1.974-1.99 0-1.043 0.881-2.479 2.643-2.479zM8.309 20c-1.058 0-1.833-0.652-1.093-3.524l1.214-5.092c0.211-0.814 0.246-1.141 0-1.141-0.317 0-1.689 0.562-2.502 1.117l-0.528-0.88c2.572-2.186 5.531-3.467 6.801-3.467 1.057 0 1.233 1.273 0.705 3.23l-1.391 5.352c-0.246 0.945-0.141 1.271 0.106 1.271 0.317 0 1.357-0.392 2.379-1.207l0.6 0.814c-2.502 2.547-5.235 3.527-6.291 3.527z"></path>
</symbol>
<symbol id="icon-link" viewBox="0 0 20 20">
<path d="M7.859 14.691l-0.81 0.805c-0.701 0.695-1.843 0.695-2.545 0-0.336-0.334-0.521-0.779-0.521-1.252s0.186-0.916 0.521-1.252l2.98-2.955c0.617-0.613 1.779-1.515 2.626-0.675 0.389 0.386 1.016 0.384 1.403-0.005 0.385-0.389 0.383-1.017-0.006-1.402-1.438-1.428-3.566-1.164-5.419 0.675l-2.98 2.956c-0.715 0.709-1.108 1.654-1.108 2.658 0 1.006 0.394 1.949 1.108 2.658 0.736 0.73 1.702 1.096 2.669 1.096s1.934-0.365 2.669-1.096l0.811-0.805c0.389-0.385 0.391-1.012 0.005-1.4s-1.014-0.39-1.403-0.006zM16.891 3.207c-1.547-1.534-3.709-1.617-5.139-0.197l-1.009 1.002c-0.389 0.386-0.392 1.013-0.006 1.401 0.386 0.389 1.013 0.391 1.402 0.005l1.010-1.001c0.74-0.736 1.711-0.431 2.346 0.197 0.336 0.335 0.522 0.779 0.522 1.252s-0.186 0.917-0.522 1.251l-3.18 3.154c-1.454 1.441-2.136 0.766-2.427 0.477-0.389-0.386-1.016-0.383-1.401 0.005s-0.384 1.017 0.005 1.401c0.668 0.662 1.43 0.99 2.228 0.99 0.977 0 2.010-0.492 2.993-1.467l3.18-3.153c0.712-0.71 1.107-1.654 1.107-2.658s-0.395-1.949-1.109-2.659z"></path>
</symbol>
<symbol id="icon-lock-open" viewBox="0 0 20 20">
<path d="M15.8 8h-1.8v-2.4c0-2.897-1.335-4.6-4-4.6s-4 1.703-4 4.6v0.4h2v-0.801c0-1.445 0.797-2.199 2-2.199s2 0.754 2 2.199v2.801h-8c-0.553 0-1 0.646-1 1.199v7.801c0 0.549 0.428 1.139 0.951 1.307l1.197 0.387c0.524 0.167 1.402 0.306 1.952 0.306h5.8c0.549 0 1.428-0.139 1.951-0.307l1.196-0.387c0.524-0.167 0.953-0.757 0.953-1.306v-7.801c0-0.553-0.648-1.199-1.2-1.199z"></path>
</symbol>
<symbol id="icon-lock" viewBox="0 0 20 20">
<path d="M15.8 8h-1.8v-2.4c0-2.897-1.335-4.6-4-4.6s-4 1.703-4 4.6v2.4h-2c-0.553 0-1 0.646-1 1.199v7.801c0 0.549 0.428 1.139 0.951 1.307l1.197 0.387c0.524 0.167 1.402 0.306 1.952 0.306h5.8c0.549 0 1.428-0.139 1.951-0.307l1.196-0.387c0.524-0.167 0.953-0.757 0.953-1.306v-7.801c0-0.553-0.648-1.199-1.2-1.199zM12 8h-4v-2.801c0-1.445 0.797-2.199 2-2.199s2 0.754 2 2.199v2.801z"></path>
</symbol>
<symbol id="icon-magnifying-glass" viewBox="0 0 20 20">
<path d="M17.545 15.467l-3.779-3.779c0.57-0.935 0.898-2.035 0.898-3.21 0-3.417-2.961-6.377-6.378-6.377s-6.186 2.769-6.186 6.186c0 3.416 2.961 6.377 6.377 6.377 1.137 0 2.2-0.309 3.115-0.844l3.799 3.801c0.372 0.371 0.975 0.371 1.346 0l0.943-0.943c0.371-0.371 0.236-0.84-0.135-1.211zM4.004 8.287c0-2.366 1.917-4.283 4.282-4.283s4.474 2.107 4.474 4.474c0 2.365-1.918 4.283-4.283 4.283s-4.473-2.109-4.473-4.474z"></path>
</symbol>
<symbol id="icon-mail" viewBox="0 0 20 20">
<path d="M1.574 5.286c0.488 0.262 7.248 3.894 7.5 4.029s0.578 0.199 0.906 0.199c0.328 0 0.654-0.064 0.906-0.199s7.012-3.767 7.5-4.029c0.489-0.263 0.951-1.286 0.054-1.286h-16.919c-0.897 0-0.435 1.023 0.053 1.286zM18.613 7.489c-0.555 0.289-7.387 3.849-7.727 4.027s-0.578 0.199-0.906 0.199-0.566-0.021-0.906-0.199-7.133-3.739-7.688-4.028c-0.39-0.204-0.386 0.035-0.386 0.219s0 7.293 0 7.293c0 0.42 0.566 1 1 1h16c0.434 0 1-0.58 1-1 0 0 0-7.108 0-7.292s0.004-0.423-0.387-0.219z"></path>
</symbol>
<symbol id="icon-menu" viewBox="0 0 20 20">
<path d="M16.4 9h-12.8c-0.552 0-0.6 0.447-0.6 1s0.048 1 0.6 1h12.8c0.552 0 0.6-0.447 0.6-1s-0.048-1-0.6-1zM16.4 13h-12.8c-0.552 0-0.6 0.447-0.6 1s0.048 1 0.6 1h12.8c0.552 0 0.6-0.447 0.6-1s-0.048-1-0.6-1zM3.6 7h12.8c0.552 0 0.6-0.447 0.6-1s-0.048-1-0.6-1h-12.8c-0.552 0-0.6 0.447-0.6 1s0.048 1 0.6 1z"></path>
</symbol>
<symbol id="icon-message" viewBox="0 0 20 20">
<path d="M18 6v7c0 1.1-0.9 2-2 2h-4v3l-4-3h-4c-1.101 0-2-0.9-2-2v-7c0-1.1 0.899-2 2-2h12c1.1 0 2 0.9 2 2z"></path>
</symbol>
<symbol id="icon-new-message" viewBox="0 0 20 20">
<path d="M18.174 1.826c-1.102-1.102-2.082-0.777-2.082-0.777l-8.639 8.632-1.453 4.319 4.317-1.454 8.634-8.638c0 0 0.324-0.98-0.777-2.082zM10.605 11.605l-0.471 0.47-1.473 0.5c-0.104-0.24-0.234-0.477-0.498-0.74s-0.5-0.394-0.74-0.498l0.5-1.473 0.471-0.47c0 0 0.776-0.089 1.537 0.673 0.762 0.761 0.674 1.538 0.674 1.538zM16 17h-13v-13h5l2-2h-7c-1.1 0-2 0.9-2 2v13c0 1.1 0.9 2 2 2h13c1.1 0 2-0.9 2-2v-7l-2 2v5z"></path>
</symbol>
<symbol id="icon-old-mobile" viewBox="0 0 20 20">
<path d="M13.6 3h-6.6v-3h-2v18.6c0 0.77 0.629 1.4 1.398 1.4h7.202c0.769 0 1.4-0.631 1.4-1.4v-14.199c0-0.772-0.631-1.401-1.4-1.401zM8 15c-0.691 0-1.25-0.447-1.25-1s0.559-1 1.25-1 1.25 0.447 1.25 1-0.559 1-1.25 1zM9.25 17c0 0.553-0.559 1-1.25 1s-1.25-0.447-1.25-1 0.559-1 1.25-1 1.25 0.447 1.25 1zM7 11v-6h6v6h-6zM12 15c-0.691 0-1.25-0.447-1.25-1s0.559-1 1.25-1 1.25 0.447 1.25 1-0.559 1-1.25 1zM13.25 17c0 0.553-0.559 1-1.25 1s-1.25-0.447-1.25-1 0.559-1 1.25-1 1.25 0.447 1.25 1z"></path>
</symbol>
<symbol id="icon-paper-plane" viewBox="0 0 20 20">
<path d="M18.64 2.634c-0.344 0.121-17.321 6.104-17.656 6.222-0.284 0.1-0.347 0.345-0.010 0.479 0.401 0.161 3.796 1.521 3.796 1.521v0l2.25 0.901c0 0 10.838-7.958 10.984-8.066 0.148-0.108 0.318 0.095 0.211 0.211s-7.871 8.513-7.871 8.513v0.002l-0.452 0.503 0.599 0.322c0 0 4.65 2.504 4.982 2.682 0.291 0.156 0.668 0.027 0.752-0.334 0.099-0.426 2.845-12.261 2.906-12.525 0.079-0.343-0.148-0.552-0.491-0.431zM7 17.162c0 0.246 0.139 0.315 0.331 0.141 0.251-0.229 2.85-2.561 2.85-2.561l-3.181-1.644v4.064z"></path>
</symbol>
<symbol id="icon-plus" viewBox="0 0 20 20">
<path d="M16 10c0 0.553-0.048 1-0.601 1h-4.399v4.399c0 0.552-0.447 0.601-1 0.601s-1-0.049-1-0.601v-4.399h-4.399c-0.552 0-0.601-0.447-0.601-1s0.049-1 0.601-1h4.399v-4.399c0-0.553 0.447-0.601 1-0.601s1 0.048 1 0.601v4.399h4.399c0.553 0 0.601 0.447 0.601 1z"></path>
</symbol>
<symbol id="icon-rocket" viewBox="0 0 20 20">
<path d="M11.933 13.069c0 0 7.059-5.094 6.276-10.924-0.017-0.127-0.059-0.213-0.112-0.268-0.054-0.055-0.137-0.098-0.263-0.115-5.697-0.801-10.674 6.422-10.674 6.422-4.318-0.517-4.004 0.344-5.974 5.076-0.377 0.902 0.234 1.213 0.904 0.959 0.67-0.252 2.148-0.811 2.148-0.811l2.59 2.648c0 0-0.546 1.514-0.793 2.199s0.055 1.311 0.938 0.926c4.624-2.016 5.466-1.694 4.96-6.112zM12.942 7.153c-0.598-0.613-0.598-1.604 0-2.217 0.598-0.611 1.567-0.611 2.166 0s0.598 1.603 0 2.217c-0.599 0.611-1.569 0.611-2.166 0z"></path>
</symbol>
<symbol id="icon-share-alternitive" viewBox="0 0 20 20">
<path d="M9 13h2v-9h2l-3-4-3 4h2v9zM17 7h-3v2h2v9h-12v-9h2v-2h-3c-0.553 0-1 0.447-1 1v11c0 0.552 0.447 1 1 1h14c0.553 0 1-0.448 1-1v-11c0-0.552-0.447-1-1-1z"></path>
</symbol>
<symbol id="icon-share" viewBox="0 0 20 20">
<path d="M15 13.442c-0.633 0-1.204 0.246-1.637 0.642l-5.938-3.463c0.046-0.188 0.075-0.384 0.075-0.584s-0.029-0.395-0.075-0.583l5.875-3.429c0.446 0.417 1.042 0.675 1.7 0.675 1.379 0 2.5-1.121 2.5-2.5s-1.121-2.5-2.5-2.5-2.5 1.121-2.5 2.5c0 0.2 0.029 0.396 0.075 0.583l-5.875 3.429c-0.446-0.416-1.042-0.675-1.7-0.675-1.379 0-2.5 1.121-2.5 2.5s1.121 2.5 2.5 2.5c0.658 0 1.254-0.258 1.7-0.675l5.938 3.463c-0.042 0.175-0.067 0.358-0.067 0.546 0 1.342 1.087 2.429 2.429 2.429s2.429-1.088 2.429-2.429-1.087-2.429-2.429-2.429z"></path>
</symbol>
<symbol id="icon-traffic-cone" viewBox="0 0 20 20">
<path d="M10 12.078c2.39 0 4.392-0.812 4.513-1.873-0.356-0.996-0.744-2.084-1.125-3.152-0.264 0.761-1.725 1.301-3.388 1.301s-3.124-0.54-3.388-1.301c-0.381 1.068-0.769 2.156-1.124 3.152 0.121 1.061 2.122 1.873 4.512 1.873zM10 5.373c1.124 0 2.167-0.348 2.473-0.889-0.421-1.182-0.782-2.197-1.011-2.836-0.152-0.427-0.841-0.648-1.462-0.648s-1.31 0.221-1.462 0.648c-0.228 0.639-0.59 1.654-1.011 2.836 0.306 0.541 1.35 0.889 2.473 0.889zM18.78 13.066l-3.755-1.514 0.433 1.207c-0.022 1.279-2.504 2.299-5.458 2.299s-5.437-1.019-5.458-2.299l0.433-1.207-3.755 1.514c-1.053 0.424-1.098 1.209-0.098 1.744l7.062 3.787c0.998 0.535 2.633 0.535 3.632 0l7.063-3.787c0.999-0.535 0.954-1.32-0.099-1.744z"></path>
</symbol>
<symbol id="icon-user" viewBox="0 0 20 20">
<path d="M7.725 2.146c-1.016 0.756-1.289 1.953-1.239 2.59 0.064 0.779 0.222 1.793 0.222 1.793s-0.313 0.17-0.313 0.854c0.109 1.717 0.683 0.976 0.801 1.729 0.284 1.814 0.933 1.491 0.933 2.481 0 1.649-0.68 2.42-2.803 3.334-2.13 0.918-4.326 2.073-4.326 4.073v1h18v-1c0-2-2.197-3.155-4.328-4.072-2.123-0.914-2.801-1.684-2.801-3.334 0-0.99 0.647-0.667 0.932-2.481 0.119-0.753 0.692-0.012 0.803-1.729 0-0.684-0.314-0.854-0.314-0.854s0.158-1.014 0.221-1.793c0.065-0.817-0.398-2.561-2.3-3.096-0.333-0.34-0.558-0.881 0.466-1.424-2.24-0.105-2.761 1.067-3.954 1.929z"></path>
</symbol>
<symbol id="icon-users" viewBox="0 0 20 20">
<path d="M15.989 19.129c0-2.246-2.187-3.389-4.317-4.307-2.123-0.914-2.801-1.684-2.801-3.334 0-0.989 0.648-0.667 0.932-2.481 0.12-0.752 0.692-0.012 0.802-1.729 0-0.684-0.313-0.854-0.313-0.854s0.159-1.013 0.221-1.793c0.064-0.817-0.398-2.56-2.301-3.095-0.332-0.341-0.557-0.882 0.467-1.424-2.24-0.104-2.761 1.068-3.954 1.93-1.015 0.756-1.289 1.953-1.24 2.59 0.065 0.78 0.223 1.793 0.223 1.793s-0.314 0.17-0.314 0.854c0.11 1.718 0.684 0.977 0.803 1.729 0.284 1.814 0.933 1.492 0.933 2.481 0 1.65-0.212 2.21-2.336 3.124-2.131 0.917-2.794 2.387-2.783 4.516 0.003 0.637-0.011 0.871-0.011 0.871h16c0 0-0.011-0.234-0.011-0.871zM18.528 13.365c-1.135-0.457-1.605-1.002-1.605-2.066 0-0.641 0.418-0.432 0.602-1.603 0.077-0.484 0.447-0.008 0.518-1.115 0-0.441-0.202-0.551-0.202-0.551s0.103-0.656 0.143-1.159c0.050-0.627-0.364-2.247-2.268-2.247s-2.318 1.62-2.269 2.247c0.042 0.502 0.144 1.159 0.144 1.159s-0.202 0.109-0.202 0.551c0.071 1.107 0.441 0.631 0.518 1.115 0.184 1.172 0.602 0.963 0.602 1.603 0 1.064-0.438 1.562-1.809 2.152-0.069 0.029-0.12 0.068-0.183 0.102 1.64 0.712 4.226 1.941 4.838 4.447h2.645c0 0 0-1.906 0-2.318 0-1-0.273-1.834-1.472-2.317z"></path>
</symbol>
<symbol id="icon-v-card" viewBox="0 0 20 20">
<path d="M19 3h-18c-0.553 0-1 0.447-1 1v12c0 0.552 0.447 1 1 1h18c0.553 0 1-0.448 1-1v-12c0-0.552-0.447-1-1-1zM13 7h4v1h-4v-1zM11 14.803c-0.129-0.102-0.293-0.201-0.529-0.303-1.18-0.508-2.961-1.26-2.961-2.176 0-0.551 0.359-0.371 0.518-1.379 0.066-0.418 0.385-0.007 0.445-0.961 0-0.38-0.174-0.475-0.174-0.475s0.088-0.562 0.123-0.996c0.036-0.453-0.221-1.8-1.277-2.097-0.186-0.188-0.311-0.111 0.258-0.412-1.244-0.059-1.534 0.592-2.196 1.071-0.564 0.42-0.717 1.085-0.689 1.439 0.037 0.433 0.125 0.996 0.125 0.996s-0.175 0.094-0.175 0.474c0.061 0.954 0.38 0.543 0.445 0.961 0.158 1.008 0.519 0.828 0.519 1.379 0 0.916-1.781 1.668-2.961 2.176-0.203 0.088-0.349 0.173-0.471 0.26v-9.76h9v9.803zM18 11h-5v-1h5v1z"></path>
</symbol>
<symbol id="icon-dropbox" viewBox="0 0 20 20">
<path d="M6.109 0.902l-5.709 3.555 3.911 3.279 5.689-3.693-3.891-3.141zM13.452 15.992c-0.102 0-0.203-0.033-0.285-0.102l-3.167-2.628-3.167 2.629c-0.082 0.068-0.184 0.102-0.285 0.102-0.085 0-0.17-0.023-0.244-0.072l-2.346-1.533v0.904l6.042 3.806 6.042-3.807v-0.904l-2.346 1.533c-0.074 0.049-0.159 0.072-0.244 0.072zM19.6 4.457l-5.71-3.555-3.89 3.141 5.688 3.693 3.912-3.279zM10 11.291l3.528 2.928 5.641-3.688-3.481-2.795-5.688 3.555zM6.472 14.219l3.528-2.928-5.689-3.555-3.48 2.795 5.641 3.688z"></path>
</symbol>
<symbol id="icon-evernote" viewBox="0 0 20 20">
<path d="M17.339 4.307c0-1.15-1.732-1.277-1.732-1.277l-4.069-0.256c0 0-0.087-1.107-0.909-1.492-0.822-0.383-1.726-0.266-2.376-0.26s-0.803 0.835-0.803 1.617c0 0.781 0.014 1.684 0.014 2.25 0 1.018-0.447 1.449-1.566 1.449h-2.307c-0.645-0.041-1.147 0.064-1.147 0.586 0 0.523 0.759 4.973 1.801 6 0.605 0.596 4.305 1.014 5.084 1.014s0.519-2.301 0.736-2.301c0.217 0 0.454 1.299 1.682 1.603 1.226 0.307 2.864 0.25 2.951 1.123 0.113 1.152 0.217 2.642-0.541 2.748l-1.716 0.068c-1.176-0.084-0.86-1.369-0.341-1.369s0.779-0.019 0.779-0.019l0.065-1.406c0 0-2.693-0.318-2.807 1.498-0.105 1.66 0.18 2.443 0.389 2.613 0.209 0.172 0.571 0.504 3.869 0.504 4.647 0 2.944-13.543 2.944-14.693zM15.44 10.32c-0.182 0.196-0.842-0.32-1.472-0.32s-1.311 0.334-1.471 0.113c-0.16-0.219 0.146-1.99 1.334-1.99s1.793 2.004 1.609 2.197z"></path>
<path d="M5.804 4.166c0-0.229 0.058-2.984 0.058-2.984l-3.505 3.44c0 0 2.422 0 2.898 0s0.549-0.229 0.549-0.456z"></path>
</symbol>
<symbol id="icon-google-drive" viewBox="0 0 20 20">
<path d="M8.175 13l-3.324 6h11.824l3.325-6h-11.825zM5.865 2.299l-5.865 10.615 3.372 6.084 5.866-10.615-3.373-6.084zM19.445 12l-6.096-11h-6.745l6.088 11h6.753z"></path>
</symbol>
<symbol id="icon-google-hangouts" viewBox="0 0 20 20">
<path d="M10 0c-4.75 0-8.6 3.806-8.6 8.5s3.85 8.5 8.6 8.5v3c3.368-1.672 8.6-5.305 8.6-11.5 0-4.694-3.85-8.5-8.6-8.5zM9 9.741c0 1.328-1.021 2.422-2.32 2.538-0.123 0.011-0.228-0.088-0.228-0.211v-0.852c0-0.106 0.079-0.194 0.184-0.21 0.531-0.076 0.937-0.487 1.047-1.006h-1.951c-0.404 0-0.732-0.328-0.732-0.732v-2.536c0-0.404 0.328-0.732 0.732-0.732h2.536c0.404 0 0.732 0.328 0.732 0.732v3.009zM15 9.741c0 1.328-1.021 2.422-2.32 2.538-0.123 0.011-0.228-0.088-0.228-0.211v-0.852c0-0.106 0.079-0.194 0.184-0.21 0.531-0.077 0.937-0.487 1.047-1.006h-1.951c-0.404 0-0.732-0.328-0.732-0.732v-2.536c0-0.404 0.328-0.732 0.732-0.732h2.536c0.404 0 0.732 0.328 0.732 0.732v3.009z"></path>
</symbol>
<symbol id="icon-facebook-with-circle" viewBox="0 0 20 20">
<path d="M10 0.4c-5.302 0-9.6 4.298-9.6 9.6s4.298 9.6 9.6 9.6 9.6-4.298 9.6-9.6-4.298-9.6-9.6-9.6zM12.274 7.034h-1.443c-0.171 0-0.361 0.225-0.361 0.524v1.042h1.805l-0.273 1.486h-1.532v4.461h-1.703v-4.461h-1.545v-1.486h1.545v-0.874c0-1.254 0.87-2.273 2.064-2.273h1.443v1.581z"></path>
</symbol>
<symbol id="icon-facebook" viewBox="0 0 20 20">
<path d="M17 1h-14c-1.1 0-2 0.9-2 2v14c0 1.101 0.9 2 2 2h7v-7h-2v-2.475h2v-2.050c0-2.164 1.212-3.684 3.766-3.684l1.803 0.002v2.605h-1.197c-0.994 0-1.372 0.746-1.372 1.438v1.69h2.568l-0.568 2.474h-2v7h4c1.1 0 2-0.899 2-2v-14c0-1.1-0.9-2-2-2z"></path>
</symbol>
<symbol id="icon-github" viewBox="0 0 20 20">
<path d="M13.18 11.309c-0.718 0-1.3 0.807-1.3 1.799 0 0.994 0.582 1.801 1.3 1.801s1.3-0.807 1.3-1.801c-0.001-0.992-0.582-1.799-1.3-1.799zM17.706 6.626c0.149-0.365 0.155-2.439-0.635-4.426 0 0-1.811 0.199-4.551 2.080-0.575-0.16-1.548-0.238-2.519-0.238-0.973 0-1.945 0.078-2.52 0.238-2.741-1.881-4.552-2.080-4.552-2.080-0.789 1.987-0.781 4.061-0.634 4.426-0.928 1.008-1.495 2.219-1.495 3.871 0 7.186 5.963 7.301 7.467 7.301 0.342 0 1.018 0.002 1.734 0.002s1.392-0.002 1.732-0.002c1.506 0 7.467-0.115 7.467-7.301 0-1.652-0.566-2.863-1.494-3.871zM10.028 16.915h-0.056c-3.771 0-6.709-0.449-6.709-4.115 0-0.879 0.31-1.693 1.047-2.369 1.227-1.127 3.305-0.531 5.662-0.531 0.010 0 0.020 0 0.029 0s0.018 0 0.027 0c2.357 0 4.436-0.596 5.664 0.531 0.735 0.676 1.045 1.49 1.045 2.369 0 3.666-2.937 4.115-6.709 4.115zM6.821 11.309c-0.718 0-1.3 0.807-1.3 1.799 0 0.994 0.582 1.801 1.3 1.801s1.301-0.807 1.301-1.801c0-0.992-0.582-1.799-1.301-1.799z"></path>
</symbol>
<symbol id="icon-google-with-circle" viewBox="0 0 20 20">
<path d="M10 0.4c-5.302 0-9.6 4.298-9.6 9.6s4.298 9.6 9.6 9.6 9.6-4.298 9.6-9.6-4.298-9.6-9.6-9.6zM9.447 14.121c-0.603 0.293-1.252 0.324-1.503 0.324-0.048 0-0.075 0-0.075 0s-0.023 0-0.054 0c-0.392 0-2.343-0.090-2.343-1.867 0-1.746 2.125-1.883 2.776-1.883h0.017c-0.376-0.502-0.298-1.008-0.298-1.008-0.033 0.002-0.081 0.004-0.14 0.004-0.245 0-0.718-0.039-1.124-0.301-0.498-0.32-0.75-0.865-0.75-1.619 0-2.131 2.327-2.217 2.35-2.219h2.324v0.051c0 0.26-0.467 0.311-0.785 0.354-0.108 0.016-0.325 0.037-0.386 0.068 0.589 0.315 0.684 0.809 0.684 1.545 0 0.838-0.328 1.281-0.676 1.592-0.216 0.193-0.385 0.344-0.385 0.547 0 0.199 0.232 0.402 0.502 0.639 0.441 0.389 1.046 0.918 1.046 1.811 0 0.923-0.397 1.583-1.18 1.962zM14.5 10h-1.5v1.5h-1v-1.5h-1.5v-1h1.5v-1.5h1v1.5h1.5v1zM8.223 11.15c-0.052 0-0.104 0.002-0.157 0.006-0.444 0.033-0.854 0.199-1.15 0.469-0.294 0.266-0.444 0.602-0.423 0.941 0.045 0.711 0.808 1.127 1.735 1.061 0.912-0.066 1.52-0.592 1.476-1.303-0.042-0.668-0.623-1.174-1.481-1.174zM9.097 7.285c-0.242-0.85-0.632-1.102-1.238-1.102-0.065 0-0.131 0.010-0.194 0.027-0.263 0.075-0.472 0.294-0.588 0.62-0.119 0.33-0.126 0.674-0.024 1.066 0.185 0.701 0.683 1.209 1.185 1.209 0.066 0 0.132-0.008 0.194-0.027 0.549-0.154 0.893-0.992 0.665-1.793z"></path>
</symbol>
<symbol id="icon-google" viewBox="0 0 20 20">
<path d="M1.989 5.589c0 1.494 0.499 2.572 1.482 3.205 0.806 0.52 1.74 0.598 2.226 0.598 0.118 0 0.213-0.006 0.279-0.010 0 0-0.154 1.004 0.59 1.996h-0.034c-1.289 0-5.493 0.269-5.493 3.727 0 3.516 3.861 3.695 4.636 3.695 0.061 0 0.097-0.002 0.097-0.002 0.008 0 0.063 0.002 0.158 0.002 0.497 0 1.782-0.062 2.975-0.643 1.548-0.75 2.333-2.059 2.333-3.885 0-1.764-1.196-2.814-2.069-3.582-0.533-0.469-0.994-0.873-0.994-1.266 0-0.4 0.337-0.701 0.762-1.082 0.689-0.615 1.339-1.492 1.339-3.15 0-1.457-0.189-2.436-1.354-3.057 0.121-0.062 0.551-0.107 0.763-0.137 0.631-0.086 1.554-0.184 1.554-0.699v-0.099h-4.599c-0.046 0.002-4.651 0.172-4.651 4.389zM9.413 14.602c0.088 1.406-1.115 2.443-2.922 2.574-1.835 0.135-3.345-0.691-3.433-2.096-0.043-0.676 0.254-1.336 0.835-1.863 0.589-0.533 1.398-0.863 2.278-0.928 0.104-0.006 0.207-0.012 0.31-0.012 1.699 0.001 2.849 0.999 2.932 2.325zM8.212 4.626c0.451 1.588-0.23 3.246-1.316 3.553-0.125 0.035-0.253 0.052-0.384 0.052-0.994 0-1.979-1.006-2.345-2.393-0.204-0.776-0.187-1.458 0.047-2.112 0.229-0.645 0.643-1.078 1.163-1.225 0.125-0.035 0.254-0.053 0.385-0.053 1.2 0 1.972 0.498 2.45 2.178zM16 8v-3h-2v3h-3v2h3v3h2v-3h3v-2h-3z"></path>
</symbol>
<symbol id="icon-instagram-with-circle" viewBox="0 0 20 20">
<path d="M13 10c0 1.657-1.343 3-3 3s-3-1.343-3-3c0-0.171 0.018-0.338 0.049-0.5h-1.049v3.997c0 0.278 0.225 0.503 0.503 0.503h6.995c0.277 0 0.502-0.225 0.502-0.503v-3.997h-1.049c0.031 0.162 0.049 0.329 0.049 0.5zM10 12c1.104 0 2-0.896 2-2s-0.896-2-2-2-2 0.896-2 2 0.896 2 2 2zM12.4 7.9h1.199c0.166 0 0.301-0.135 0.301-0.3v-1.199c0-0.166-0.135-0.301-0.301-0.301h-1.199c-0.166 0-0.301 0.135-0.301 0.301v1.199c0.001 0.165 0.136 0.3 0.301 0.3zM10 0.4c-5.302 0-9.6 4.298-9.6 9.6s4.298 9.6 9.6 9.6c5.302 0 9.6-4.298 9.6-9.6s-4.298-9.6-9.6-9.6zM15 13.889c0 0.611-0.5 1.111-1.111 1.111h-7.778c-0.611 0-1.111-0.5-1.111-1.111v-7.778c0-0.611 0.5-1.111 1.111-1.111h7.778c0.611 0 1.111 0.5 1.111 1.111v7.778z"></path>
</symbol>
<symbol id="icon-instagram" viewBox="0 0 20 20">
<path d="M17 1h-14c-1.1 0-2 0.9-2 2v14c0 1.101 0.9 2 2 2h14c1.1 0 2-0.899 2-2v-14c0-1.1-0.9-2-2-2zM9.984 15.523c3.059 0 5.538-2.481 5.538-5.539 0-0.338-0.043-0.664-0.103-0.984h1.581v7.216c0 0.382-0.31 0.69-0.693 0.69h-12.614c-0.383 0-0.693-0.308-0.693-0.69v-7.216h1.549c-0.061 0.32-0.104 0.646-0.104 0.984 0 3.059 2.481 5.539 5.539 5.539zM6.523 9.984c0-1.912 1.55-3.461 3.462-3.461s3.462 1.549 3.462 3.461-1.551 3.462-3.462 3.462c-1.913 0-3.462-1.55-3.462-3.462zM16.307 6h-1.615c-0.382 0-0.692-0.312-0.692-0.692v-1.617c0-0.382 0.31-0.691 0.691-0.691h1.615c0.384 0 0.694 0.309 0.694 0.691v1.616c0 0.381-0.31 0.693-0.693 0.693z"></path>
</symbol>
<symbol id="icon-tumblr-with-circle" viewBox="0 0 20 20">
<path d="M10 0.4c-5.302 0-9.6 4.298-9.6 9.6s4.298 9.6 9.6 9.6 9.6-4.298 9.6-9.6-4.298-9.6-9.6-9.6zM12.577 14.141c-0.393 0.188-0.748 0.318-1.066 0.395-0.318 0.074-0.662 0.113-1.031 0.113-0.42 0-0.791-0.055-1.114-0.162s-0.598-0.26-0.826-0.459c-0.228-0.197-0.386-0.41-0.474-0.633-0.088-0.225-0.132-0.549-0.132-0.973v-3.262h-1.016v-1.314c0.359-0.119 0.67-0.289 0.927-0.512 0.257-0.221 0.464-0.486 0.619-0.797s0.263-0.707 0.322-1.185h1.307v2.35h2.18v1.458h-2.18v2.385c0 0.539 0.028 0.885 0.085 1.037 0.056 0.154 0.161 0.275 0.315 0.367 0.204 0.123 0.437 0.185 0.697 0.185 0.466 0 0.928-0.154 1.388-0.461v1.468z"></path>
</symbol>
<symbol id="icon-tumblr" viewBox="0 0 20 20">
<path d="M15.6 18.196c-0.777 0.371-1.48 0.631-2.109 0.781-0.63 0.148-1.311 0.223-2.043 0.223-0.831 0-1.566-0.107-2.205-0.318-0.639-0.213-1.183-0.516-1.635-0.908-0.451-0.395-0.764-0.812-0.938-1.254s-0.261-1.086-0.261-1.926v-6.455h-2.009v-2.604c0.714-0.234 1.326-0.57 1.835-1.010 0.51-0.438 0.918-0.965 1.227-1.58 0.308-0.613 0.519-1.396 0.636-2.345h2.585v4.652h4.314v2.887h-4.314v4.719c0 1.066 0.056 1.752 0.168 2.055 0.111 0.303 0.319 0.545 0.622 0.725 0.403 0.244 0.863 0.367 1.381 0.367 0.92 0 1.836-0.303 2.746-0.908v2.899z"></path>
</symbol>
<symbol id="icon-twitter-with-circle" viewBox="0 0 20 20">
<path d="M10 0.4c-5.302 0-9.6 4.298-9.6 9.6s4.298 9.6 9.6 9.6 9.6-4.298 9.6-9.6-4.298-9.6-9.6-9.6zM13.905 8.264c0.004 0.082 0.005 0.164 0.005 0.244 0 2.5-1.901 5.381-5.379 5.381-1.068 0-2.062-0.312-2.898-0.85 0.147 0.018 0.298 0.025 0.451 0.025 0.886 0 1.701-0.301 2.348-0.809-0.827-0.016-1.525-0.562-1.766-1.312 0.115 0.021 0.233 0.033 0.355 0.033 0.172 0 0.34-0.023 0.498-0.066-0.865-0.174-1.517-0.938-1.517-1.854v-0.023c0.255 0.141 0.547 0.227 0.857 0.237-0.508-0.34-0.841-0.918-0.841-1.575 0-0.346 0.093-0.672 0.256-0.951 0.933 1.144 2.325 1.896 3.897 1.977-0.033-0.139-0.049-0.283-0.049-0.432 0-1.043 0.846-1.891 1.891-1.891 0.543 0 1.035 0.23 1.38 0.598 0.431-0.086 0.835-0.242 1.2-0.459-0.141 0.441-0.44 0.812-0.831 1.047 0.383-0.047 0.747-0.148 1.086-0.299-0.253 0.379-0.574 0.713-0.943 0.979z"></path>
</symbol>
<symbol id="icon-twitter" viewBox="0 0 20 20">
<path d="M17.316 6.246c0.008 0.162 0.011 0.326 0.011 0.488 0 4.99-3.797 10.742-10.74 10.742-2.133 0-4.116-0.625-5.787-1.697 0.296 0.035 0.596 0.053 0.9 0.053 1.77 0 3.397-0.604 4.688-1.615-1.651-0.031-3.046-1.121-3.526-2.621 0.23 0.043 0.467 0.066 0.71 0.066 0.345 0 0.679-0.045 0.995-0.131-1.727-0.348-3.028-1.873-3.028-3.703 0-0.016 0-0.031 0-0.047 0.509 0.283 1.092 0.453 1.71 0.473-1.013-0.678-1.68-1.832-1.68-3.143 0-0.691 0.186-1.34 0.512-1.898 1.861 2.285 4.644 3.787 7.781 3.945-0.064-0.277-0.097-0.564-0.097-0.861 0-2.084 1.689-3.773 3.774-3.773 1.086 0 2.067 0.457 2.756 1.191 0.859-0.17 1.667-0.484 2.397-0.916-0.282 0.881-0.881 1.621-1.66 2.088 0.764-0.092 1.49-0.293 2.168-0.594-0.506 0.758-1.146 1.422-1.884 1.953z"></path>
</symbol>
<symbol id="icon-vimeo-with-circle" viewBox="0 0 20 20">
<path d="M10 0.4c-5.302 0-9.6 4.298-9.6 9.6s4.298 9.6 9.6 9.6 9.6-4.298 9.6-9.6-4.298-9.6-9.6-9.6zM14.401 8.15c-0.508 2.916-3.348 5.387-4.201 5.951-0.854 0.562-1.634-0.227-1.916-0.824-0.324-0.682-1.293-4.373-1.547-4.68s-1.016 0.307-1.016 0.307l-0.369-0.494c0 0 1.547-1.883 2.724-2.117 1.248-0.25 1.246 1.951 1.546 3.174 0.291 1.183 0.486 1.859 0.739 1.859s0.739-0.658 1.269-1.67c0.532-1.012-0.022-1.906-1.061-1.27 0.415-2.54 4.34-3.152 3.832-0.236z"></path>
</symbol>
<symbol id="icon-vimeo" viewBox="0 0 20 20">
<path d="M18.91 5.84c-1.006 5.773-6.625 10.66-8.315 11.777-1.69 1.115-3.233-0.447-3.792-1.631-0.641-1.347-2.559-8.656-3.062-9.261s-2.010 0.605-2.010 0.605l-0.731-0.976c0 0 3.061-3.725 5.391-4.191 2.47-0.493 2.466 3.864 3.060 6.282 0.574 2.342 0.961 3.68 1.463 3.68s1.462-1.305 2.512-3.305c1.053-2.004-0.045-3.772-2.101-2.514 0.823-5.027 8.591-6.236 7.585-0.466z"></path>
</symbol>
<symbol id="icon-youtube-with-circle" viewBox="0 0 20 20">
<path d="M11.603 9.833l-2.246-1.048c-0.196-0.091-0.357 0.011-0.357 0.228v1.974c0 0.217 0.161 0.319 0.357 0.228l2.245-1.048c0.197-0.092 0.197-0.242 0.001-0.334zM10 0.4c-5.302 0-9.6 4.298-9.6 9.6s4.298 9.6 9.6 9.6 9.6-4.298 9.6-9.6-4.298-9.6-9.6-9.6zM10 13.9c-4.914 0-5-0.443-5-3.9s0.086-3.9 5-3.9 5 0.443 5 3.9-0.086 3.9-5 3.9z"></path>
</symbol>
<symbol id="icon-youtube" viewBox="0 0 20 20">
<path d="M10 2.3c-9.828 0-10 0.874-10 7.7s0.172 7.7 10 7.7 10-0.874 10-7.7-0.172-7.7-10-7.7zM13.205 10.334l-4.49 2.096c-0.393 0.182-0.715-0.022-0.715-0.456v-3.948c0-0.433 0.322-0.638 0.715-0.456l4.49 2.096c0.393 0.184 0.393 0.484 0 0.668z"></path>
</symbol>
</defs>
</svg>
